<svg width="24" height="24" viewBox="0 0 24 24" fill="none" xmlns="http://www.w3.org/2000/svg">
<path d="M4.3077 19.5C3.80257 19.5 3.375 19.325 3.025 18.975C2.675 18.625 2.5 18.1974 2.5 17.6923V6.30772C2.5 5.80259 2.675 5.37502 3.025 5.02502C3.375 4.67502 3.80257 4.50002 4.3077 4.50002H14.3308C14.2833 4.75002 14.258 4.99841 14.2548 5.24519C14.2516 5.49199 14.2705 5.74359 14.3115 5.99999H3.99998V17.6923C3.99998 17.782 4.02883 17.8557 4.08653 17.9134C4.14423 17.9711 4.21795 18 4.3077 18H19.6923C19.782 18 19.8557 17.9711 19.9134 17.9134C19.9711 17.8557 20 17.782 20 17.6923V10.025C20.2871 9.96089 20.5541 9.87629 20.8009 9.77117C21.0477 9.66604 21.2807 9.53719 21.5 9.38464V17.6923C21.5 18.1974 21.325 18.625 20.975 18.975C20.625 19.325 20.1974 19.5 19.6923 19.5H4.3077ZM12 11L15.6115 8.69614C15.7872 8.86153 15.974 9.01056 16.1721 9.14324C16.3701 9.27594 16.5775 9.39421 16.7942 9.49804L12.4769 12.2519C12.3231 12.3455 12.1641 12.3939 12 12.3971C11.8359 12.4003 11.6769 12.3551 11.5231 12.2615L3.99998 7.54804V5.99999L12 11ZM19 8.13462C18.2372 8.13462 17.5881 7.86699 17.0529 7.33174C16.5176 6.79649 16.25 6.14746 16.25 5.38464C16.25 4.62183 16.5176 3.97279 17.0529 3.43754C17.5881 2.90228 18.2372 2.63464 19 2.63464C19.7628 2.63464 20.4118 2.90228 20.9471 3.43754C21.4823 3.97279 21.75 4.62183 21.75 5.38464C21.75 6.14746 21.4823 6.79649 20.9471 7.33174C20.4118 7.86699 19.7628 8.13462 19 8.13462Z" fill="#6A6D81"/>
</svg>
