<svg width="18" height="18" viewBox="0 0 18 18" fill="none" xmlns="http://www.w3.org/2000/svg">
<g id="add_FILL0_wght300_GRAD0_opsz24 1">
<path id="Vector" d="M8.4375 9.56246H4.6875C4.52813 9.56246 4.39453 9.50854 4.28672 9.40069C4.17891 9.29283 4.125 9.15918 4.125 8.99974C4.125 8.84029 4.17891 8.70672 4.28672 8.59903C4.39453 8.49134 4.52813 8.4375 4.6875 8.4375H8.4375V4.6875C8.4375 4.52813 8.49143 4.39453 8.59928 4.28672C8.70714 4.17891 8.84079 4.125 9.00023 4.125C9.15968 4.125 9.29324 4.17891 9.40093 4.28672C9.50862 4.39453 9.56246 4.52813 9.56246 4.6875V8.4375H13.3125C13.4718 8.4375 13.6054 8.49143 13.7132 8.59928C13.8211 8.70714 13.875 8.84079 13.875 9.00023C13.875 9.15968 13.8211 9.29324 13.7132 9.40093C13.6054 9.50862 13.4718 9.56246 13.3125 9.56246H9.56246V13.3125C9.56246 13.4718 9.50854 13.6054 9.40069 13.7132C9.29283 13.8211 9.15917 13.875 8.99974 13.875C8.84029 13.875 8.70672 13.8211 8.59903 13.7132C8.49134 13.6054 8.4375 13.4718 8.4375 13.3125V9.56246Z" fill="#E0E0E0"/>
</g>
</svg>
