<svg width="18" height="18" viewBox="0 0 18 18" fill="none" xmlns="http://www.w3.org/2000/svg">
<path d="M3.98077 16.1246C3.60193 16.1246 3.28125 15.9933 3.01875 15.7308C2.75625 15.4683 2.625 15.1477 2.625 14.7688V4.73039C2.625 4.35154 2.75625 4.03087 3.01875 3.76837C3.28125 3.50587 3.60193 3.37462 3.98077 3.37462H5.01924V2.36499C5.01924 2.20057 5.07429 2.06332 5.18439 1.95322C5.29448 1.84313 5.43174 1.78809 5.59616 1.78809C5.76058 1.78809 5.89783 1.84313 6.00793 1.95322C6.11802 2.06332 6.17306 2.20057 6.17306 2.36499V3.37462H11.8557V2.35057C11.8557 2.19096 11.9096 2.0573 12.0173 1.94962C12.125 1.84193 12.2586 1.78809 12.4182 1.78809C12.5778 1.78809 12.7115 1.84193 12.8192 1.94962C12.9269 2.0573 12.9807 2.19096 12.9807 2.35057V3.37462H14.0192C14.398 3.37462 14.7187 3.50587 14.9812 3.76837C15.2437 4.03087 15.375 4.35154 15.375 4.73039V14.7688C15.375 15.1477 15.2437 15.4683 14.9812 15.7308C14.7187 15.9933 14.398 16.1246 14.0192 16.1246H3.98077ZM3.98077 14.9996H14.0192C14.0769 14.9996 14.1298 14.9756 14.1779 14.9275C14.2259 14.8794 14.25 14.8265 14.25 14.7688V7.73039H3.74998V14.7688C3.74998 14.8265 3.77402 14.8794 3.82209 14.9275C3.87018 14.9756 3.92308 14.9996 3.98077 14.9996ZM3.74998 6.60541H14.25V4.73039C14.25 4.67269 14.2259 4.6198 14.1779 4.57171C14.1298 4.52364 14.0769 4.4996 14.0192 4.4996H3.98077C3.92308 4.4996 3.87018 4.52364 3.82209 4.57171C3.77402 4.6198 3.74998 4.67269 3.74998 4.73039V6.60541Z" fill="#6A6D81"/>
</svg>
