<svg width="20" height="20" viewBox="0 0 20 20" fill="none" xmlns="http://www.w3.org/2000/svg">
<path d="M4.42439 18.657C4.00344 18.657 3.64714 18.5112 3.35547 18.2195C3.0638 17.9279 2.91797 17.5716 2.91797 17.1506V5.99683C2.91797 5.57589 3.0638 5.21958 3.35547 4.92791C3.64714 4.63625 4.00344 4.49041 4.42439 4.49041H5.57824V3.3686C5.57824 3.18592 5.63941 3.03341 5.76174 2.91108C5.88406 2.78876 6.03657 2.7276 6.21926 2.7276C6.40194 2.7276 6.55445 2.78876 6.67678 2.91108C6.7991 3.03341 6.86026 3.18592 6.86026 3.3686V4.49041H13.1743V3.35258C13.1743 3.17523 13.2342 3.02673 13.3538 2.90708C13.4735 2.78743 13.622 2.7276 13.7993 2.7276C13.9767 2.7276 14.1252 2.78743 14.2448 2.90708C14.3645 3.02673 14.4243 3.17523 14.4243 3.35258V4.49041H15.5782C15.9991 4.49041 16.3554 4.63625 16.6471 4.92791C16.9388 5.21958 17.0846 5.57589 17.0846 5.99683V17.1506C17.0846 17.5716 16.9388 17.9279 16.6471 18.2195C16.3554 18.5112 15.9991 18.657 15.5782 18.657H4.42439ZM4.42439 17.4071H15.5782C15.6423 17.4071 15.7011 17.3804 15.7545 17.3269C15.8079 17.2735 15.8346 17.2147 15.8346 17.1506V9.33016H4.16795V17.1506C4.16795 17.2147 4.19466 17.2735 4.24807 17.3269C4.3015 17.3804 4.36027 17.4071 4.42439 17.4071ZM4.16795 8.08018H15.8346V5.99683C15.8346 5.93272 15.8079 5.87395 15.7545 5.82052C15.7011 5.7671 15.6423 5.74039 15.5782 5.74039H4.42439C4.36027 5.74039 4.3015 5.7671 4.24807 5.82052C4.19466 5.87395 4.16795 5.93272 4.16795 5.99683V8.08018Z" fill="#E0E0E0"/>
</svg>
