<svg width="24" height="24" viewBox="0 0 24 24" fill="none" xmlns="http://www.w3.org/2000/svg">
<g id="colorize_FILL1_wght300_GRAD0_opsz24 1">
<path id="Vector" d="M3.5 19.5963V17.1906C3.5 16.9496 3.5468 16.7178 3.6404 16.4954C3.73398 16.273 3.86282 16.0797 4.02692 15.9156L12.3635 7.57908L10.7307 5.98675L11.8153 4.93293L13.9269 7.03485L17.2096 3.74255C17.2801 3.67203 17.3667 3.61658 17.4692 3.5762C17.5718 3.53582 17.6769 3.51562 17.7846 3.51562C17.8987 3.51562 18.0029 3.53582 18.0971 3.5762C18.1913 3.61658 18.282 3.67203 18.3692 3.74255L20.2576 5.64057C20.3281 5.72134 20.3836 5.80884 20.424 5.90307C20.4644 5.99731 20.4845 6.10147 20.4845 6.21557C20.4845 6.32326 20.4644 6.42838 20.424 6.53095C20.3836 6.63352 20.3281 6.72006 20.2576 6.79057L16.9711 10.0771L19.0826 12.229L18.0134 13.2982L16.4019 11.6559L8.08457 19.9732C7.92047 20.1373 7.72721 20.2662 7.50477 20.3598C7.28234 20.4534 7.05061 20.5002 6.80957 20.5002H4.40385C4.14617 20.5002 3.93111 20.4139 3.75867 20.2415C3.58623 20.0691 3.5 19.854 3.5 19.5963ZM4.99997 19.0002H6.9692L15.3365 10.5829L13.4173 8.66365L4.99997 17.031V19.0002Z" fill="#E0E0E0"/>
</g>
</svg>
