<svg width="40" height="40" viewBox="0 0 40 40" fill="none" xmlns="http://www.w3.org/2000/svg">
<path d="M13.3348 32.3073V16.0156C13.3348 15.2698 13.5987 14.6363 14.1265 14.1149C14.6543 13.5936 15.291 13.3329 16.0368 13.3329H32.3092C33.0549 13.3329 33.6901 13.5952 34.2147 14.1197C34.7392 14.6443 35.0015 15.2795 35.0015 16.0252V27.6278L27.6297 34.9996H16.0271C15.2814 34.9996 14.6463 34.7373 14.1217 34.2127C13.5971 33.6881 13.3348 33.053 13.3348 32.3073ZM5.04318 10.9931C4.89787 10.2474 5.04102 9.57595 5.47264 8.97872C5.90427 8.3815 6.49296 8.01024 7.23868 7.86493L23.2708 5.04122C24.0165 4.89592 24.688 5.03907 25.2852 5.47068C25.8824 5.90232 26.2537 6.491 26.399 7.23673L26.7515 9.35852H25.0656L24.7098 7.37135C24.6671 7.13629 24.5389 6.94933 24.3252 6.81047C24.1116 6.67158 23.8765 6.6235 23.6201 6.66622L7.53355 9.52202C7.23441 9.56474 7.01005 9.70361 6.86047 9.93864C6.71091 10.1737 6.6575 10.4408 6.70022 10.7399L9.36047 25.7656V28.9931C8.98014 28.8073 8.65695 28.5434 8.39093 28.2015C8.1249 27.8596 7.95022 27.4675 7.86689 27.0252L5.04318 10.9931ZM15.0015 16.0252V32.3073C15.0015 32.6064 15.0977 32.8521 15.29 33.0444C15.4823 33.2367 15.728 33.3329 16.0271 33.3329H26.6682V28.0124C26.6682 27.6256 26.7958 27.3046 27.0512 27.0492C27.3065 26.7939 27.6276 26.6662 28.0143 26.6662H33.3348V16.0252C33.3348 15.726 33.2387 15.4803 33.0464 15.288C32.8541 15.0957 32.6084 14.9996 32.3092 14.9996H16.0271C15.728 14.9996 15.4823 15.0957 15.29 15.288C15.0977 15.4803 15.0015 15.726 15.0015 16.0252Z" fill="#5A5E6C"/>
<path d="M31.5013 2.41699C27.5913 2.41699 24.418 5.59033 24.418 9.50032C24.418 13.4103 27.5913 16.5837 31.5013 16.5837C35.4113 16.5837 38.5846 13.4103 38.5846 9.50032C38.5846 5.59033 35.4113 2.41699 31.5013 2.41699ZM32.2096 13.042H30.793V11.6253H32.2096V13.042ZM32.2096 10.2087H30.793V5.95866H32.2096V10.2087Z" fill="#5A5E6C"/>
</svg>
