<svg width="24" height="24" viewBox="0 0 24 24" fill="none" xmlns="http://www.w3.org/2000/svg">
<path d="M15.7736 12.9731L14.6506 11.85C14.8211 10.9603 14.5871 10.2013 13.9486 9.57309C13.3102 8.94489 12.5441 8.70386 11.6506 8.85001L10.5275 7.72696C10.7596 7.61926 10.9983 7.5417 11.2438 7.49426C11.4894 7.44683 11.7416 7.42311 12.0006 7.42311C13.1352 7.42311 14.0983 7.81895 14.89 8.61061C15.6816 9.40228 16.0775 10.3654 16.0775 11.5C16.0775 11.759 16.0553 12.0112 16.0111 12.2567C15.9669 12.5022 15.8877 12.741 15.7736 12.9731ZM18.9544 16.0846L17.8506 15.05C18.4839 14.5667 19.0506 14.0292 19.5506 13.4375C20.0506 12.8458 20.4672 12.2 20.8006 11.5C19.9672 9.81668 18.7631 8.47918 17.1881 7.48751C15.6131 6.49585 13.8839 6.00001 12.0006 6.00001C11.5172 6.00001 11.0464 6.03335 10.5881 6.10001C10.1297 6.16668 9.66723 6.26668 9.20056 6.40001L8.03521 5.23466C8.6711 4.98338 9.31949 4.79812 9.98039 4.67889C10.6413 4.55965 11.3147 4.50004 12.0006 4.50004C14.1493 4.50004 16.123 5.05837 17.9217 6.17504C19.7204 7.2917 21.1037 8.8026 22.0717 10.7077C22.1384 10.8346 22.1867 10.9625 22.2169 11.0914C22.247 11.2202 22.2621 11.3564 22.2621 11.5C22.2621 11.6436 22.2496 11.7798 22.2246 11.9087C22.1996 12.0375 22.1537 12.1654 22.0871 12.2923C21.7332 13.0449 21.289 13.7397 20.7544 14.3769C20.2198 15.0141 19.6198 15.5833 18.9544 16.0846ZM12.0006 18.5C9.89545 18.5 7.96597 17.9375 6.21214 16.8125C4.45829 15.6875 3.06405 14.2058 2.02944 12.3673C1.9461 12.2404 1.88521 12.1026 1.84676 11.9539C1.8083 11.8051 1.78906 11.6539 1.78906 11.5C1.78906 11.3462 1.80573 11.1974 1.83906 11.0539C1.8724 10.9103 1.93073 10.7699 2.01406 10.6327C2.38586 9.95323 2.80702 9.30611 3.27754 8.69136C3.74805 8.07661 4.28908 7.52565 4.90061 7.03849L2.64291 4.76539C2.50445 4.61667 2.43618 4.44007 2.43811 4.23559C2.44003 4.0311 2.51342 3.85643 2.65829 3.71156C2.80315 3.56669 2.9788 3.49426 3.18521 3.49426C3.39161 3.49426 3.56725 3.56669 3.71211 3.71156L20.289 20.2885C20.4275 20.4269 20.5009 20.5984 20.5092 20.8029C20.5175 21.0073 20.4441 21.1872 20.289 21.3423C20.1441 21.4872 19.9685 21.5596 19.7621 21.5596C19.5557 21.5596 19.3801 21.4872 19.2352 21.3423L15.716 17.8538C15.1262 18.082 14.5201 18.2468 13.8977 18.3481C13.2753 18.4493 12.6429 18.5 12.0006 18.5ZM5.95444 8.09229C5.36854 8.54485 4.84193 9.05672 4.37461 9.62789C3.9073 10.199 3.51595 10.8231 3.20056 11.5C4.0339 13.1833 5.23806 14.5208 6.81306 15.5125C8.38806 16.5042 10.1172 17 12.0006 17C12.4301 17 12.8528 16.9712 13.2689 16.9135C13.6849 16.8558 14.098 16.7667 14.5083 16.6462L13.2429 15.35C13.0403 15.4384 12.8381 15.4984 12.6361 15.5298C12.4342 15.5612 12.2224 15.5769 12.0006 15.5769C10.866 15.5769 9.90283 15.1811 9.11116 14.3894C8.3195 13.5977 7.92366 12.6346 7.92366 11.5C7.92366 11.2782 7.94097 11.0664 7.97559 10.8644C8.0102 10.6625 8.06854 10.4603 8.15059 10.2577L5.95444 8.09229Z" fill="#888CA7"/>
</svg>
