<svg width="24" height="24" viewBox="0 0 24 24" fill="none" xmlns="http://www.w3.org/2000/svg">
<path d="M4.3077 19.5001C3.80257 19.5001 3.375 19.3251 3.025 18.9751C2.675 18.6251 2.5 18.1975 2.5 17.6924V6.30784C2.5 5.80271 2.675 5.37514 3.025 5.02514C3.375 4.67514 3.80257 4.50014 4.3077 4.50014H14.3308C14.2833 4.75014 14.258 4.99853 14.2548 5.24532C14.2516 5.49212 14.2705 5.74372 14.3115 6.00012H3.99998V17.6924C3.99998 17.7821 4.02883 17.8559 4.08653 17.9136C4.14423 17.9713 4.21795 18.0001 4.3077 18.0001H19.6923C19.782 18.0001 19.8557 17.9713 19.9134 17.9136C19.9711 17.8559 20 17.7821 20 17.6924V10.0251C20.2871 9.96102 20.5541 9.87641 20.8009 9.77129C21.0477 9.66616 21.2807 9.53732 21.5 9.38477V17.6924C21.5 18.1975 21.325 18.6251 20.975 18.9751C20.625 19.3251 20.1974 19.5001 19.6923 19.5001H4.3077ZM12 11.0001L15.6115 8.69627C15.7872 8.86165 15.974 9.01068 16.1721 9.14337C16.3701 9.27607 16.5775 9.39433 16.7942 9.49817L12.4769 12.252C12.3231 12.3456 12.1641 12.394 12 12.3972C11.8359 12.4004 11.6769 12.3552 11.5231 12.2616L3.99998 7.54817V6.00012L12 11.0001ZM19 8.13474C18.2372 8.13474 17.5881 7.86712 17.0529 7.33187C16.5176 6.79662 16.25 6.14758 16.25 5.38477C16.25 4.62195 16.5176 3.97292 17.0529 3.43767C17.5881 2.9024 18.2372 2.63477 19 2.63477C19.7628 2.63477 20.4118 2.9024 20.9471 3.43767C21.4823 3.97292 21.75 4.62195 21.75 5.38477C21.75 6.14758 21.4823 6.79662 20.9471 7.33187C20.4118 7.86712 19.7628 8.13474 19 8.13474Z" fill="#E0E0E0"/>
</svg>
