<svg width="80" height="80" viewBox="0 0 80 80" fill="none" xmlns="http://www.w3.org/2000/svg">
<rect width="80" height="80" rx="16" fill="#37E8B4"/>
<path fill-rule="evenodd" clip-rule="evenodd" d="M54.0004 22.7492C54.0004 21.2308 52.7754 20 51.2643 20C49.7532 20 48.5282 21.2308 48.5282 22.7492V38.2914L37.8372 27.9771C36.7472 26.9255 35.0152 26.9608 33.9686 28.056C32.922 29.1512 32.9572 30.8915 34.0472 31.9431L43.5451 41.1064H29.7361C28.225 41.1064 27 42.3373 27 43.8556C27 45.3739 28.225 46.6047 29.7361 46.6047L45.2045 46.6047L34.9391 57.3468C33.8926 58.442 33.9277 60.1823 35.0177 61.2339C36.1077 62.2854 37.8397 62.2501 38.8863 61.1549L53.1537 46.225C53.7098 45.643 53.9733 44.9443 53.9967 44.2528C53.9991 44.2014 54.0004 44.1496 54.0004 44.0973V22.7492Z" fill="#151419"/>
</svg>
