<svg width="130" height="20" viewBox="0 0 130 20" fill="none" xmlns="http://www.w3.org/2000/svg">
<path fill-rule="evenodd" clip-rule="evenodd" d="M11.2782 1.14214C11.2782 0.511353 10.7666 0 10.1355 0C9.50438 0 8.99279 0.511353 8.99279 1.14214V7.59918L4.52786 3.31408C4.07265 2.87719 3.34929 2.89188 2.91219 3.34688C2.4751 3.80188 2.48979 4.52489 2.94501 4.96177L6.91162 8.76864L1.14268 8.76864C0.511597 8.76864 0 9.27999 0 9.91078C0 10.5416 0.511597 11.0529 1.14268 11.0529H7.60282L3.31566 15.5157C2.87857 15.9707 2.89326 16.6937 3.34848 17.1306C3.8037 17.5675 4.52705 17.5528 4.96415 17.0978L10.9227 10.8951C11.0872 10.7239 11.1904 10.5284 11.24 10.3268C11.2648 10.2275 11.2782 10.1221 11.2782 10.0112V1.14214Z" fill="#37E8B4"/>
<path d="M28.735 1.74463V4.57115H23.8701V16.0528H20.5289V4.57115H15.6641V1.74463H28.735Z" fill="white"/>
<path d="M85.6241 1.396V4.29146H80.6406V16.0531H77.2179V4.29146H72.2344V1.396H85.6241Z" fill="white"/>
<path d="M130.001 5.53809V14.2933C130.001 16.2215 129.508 17.6547 128.521 18.5927C127.535 19.5308 126.101 19.9998 124.22 19.9998C123.22 19.9998 122.273 19.876 121.378 19.6285C120.497 19.381 119.754 19.0227 119.148 18.5536L120.372 16.3648C120.819 16.7296 121.365 17.0163 122.01 17.2247C122.654 17.4332 123.305 17.5374 123.963 17.5374C124.989 17.5374 125.739 17.3029 126.213 16.8339C126.686 16.3648 126.923 15.6483 126.923 14.6841V14.3324C126.528 14.7232 126.061 15.0229 125.522 15.2313C124.983 15.4398 124.404 15.544 123.785 15.544C122.391 15.544 121.286 15.1532 120.47 14.3715C119.655 13.5767 119.247 12.3911 119.247 10.8147V5.53809H122.325V10.3652C122.325 12.0719 123.042 12.9253 124.476 12.9253C125.213 12.9253 125.805 12.6908 126.252 12.2217C126.699 11.7397 126.923 11.0296 126.923 10.0916V5.53809H130.001Z" fill="white"/>
<path d="M111.031 11.9295L109.551 13.3757V16.0531H106.473V1.55225H109.551V9.76025L114.05 5.53899H117.72L113.3 9.99476L118.115 16.0531H114.385L111.031 11.9295Z" fill="white"/>
<path fill-rule="evenodd" clip-rule="evenodd" d="M94.5776 10.3228C94.5894 10.4777 94.5953 10.6351 94.5953 10.7952C94.5953 11.8375 94.3454 12.769 93.8455 13.5898C93.3456 14.4106 92.655 15.0556 91.7736 15.5246C90.8923 15.9806 89.8925 16.2086 88.7743 16.2086C87.6562 16.2086 86.6498 15.9806 85.7553 15.5246C84.8739 15.0556 84.1833 14.4106 83.6834 13.5898C83.1835 12.769 82.9336 11.8375 82.9336 10.7952C82.9336 9.75292 83.1835 8.82138 83.6834 8.00058C84.1833 7.17978 84.8739 6.54138 85.7553 6.08538C86.6498 5.61635 87.6562 5.38184 88.7743 5.38184C88.8987 5.38184 89.0216 5.38474 89.143 5.39054C88.9205 5.87458 88.7966 6.41242 88.7966 6.97891C88.7966 7.29134 88.8343 7.59505 88.9054 7.88583C88.8622 7.88416 88.8185 7.88332 88.7743 7.88332C87.985 7.88332 87.3339 8.15041 86.8208 8.68458C86.3078 9.20572 86.0513 9.90927 86.0513 10.7952C86.0513 11.6812 86.3078 12.3912 86.8208 12.9254C87.3339 13.4465 87.985 13.7071 88.7743 13.7071C89.5636 13.7071 90.2082 13.4465 90.7081 12.9254C91.2211 12.3912 91.4776 11.6812 91.4776 10.7952C91.4776 10.7397 91.4766 10.6849 91.4746 10.6308C91.8519 10.7521 92.2545 10.8177 92.6726 10.8177C93.365 10.8177 94.015 10.6379 94.5776 10.3228Z" fill="white"/>
<ellipse cx="92.672" cy="6.97927" rx="1.7618" ry="1.7449" fill="#37E8B4"/>
<path fill-rule="evenodd" clip-rule="evenodd" d="M33.8712 7.38222C33.3997 7.58433 32.8796 7.69634 32.3331 7.69634C31.7858 7.69634 31.265 7.58401 30.793 7.38135V16.0543H33.8712V7.38222Z" fill="white"/>
<ellipse cx="32.3282" cy="3.8572" rx="1.7618" ry="1.7449" fill="#37E8B4"/>
<path d="M69.3371 5.53809V14.2933C69.3371 16.2215 68.8438 17.6547 67.8572 18.5927C66.8706 19.5308 65.4367 19.9998 63.5556 19.9998C62.5558 19.9998 61.6086 19.876 60.7141 19.6285C59.8327 19.381 59.0895 19.0227 58.4844 18.5536L59.7078 16.3648C60.155 16.7296 60.701 17.0163 61.3455 17.2247C61.9901 17.4332 62.6413 17.5374 63.299 17.5374C64.3251 17.5374 65.0749 17.3029 65.5485 16.8339C66.0221 16.3648 66.2589 15.6483 66.2589 14.6841V14.3324C65.8642 14.7232 65.3972 15.0229 64.8579 15.2313C64.3185 15.4398 63.7397 15.544 63.1214 15.544C61.727 15.544 60.622 15.1532 59.8064 14.3715C58.9908 13.5767 58.583 12.3911 58.583 10.8147V5.53809H61.6613V10.3652C61.6613 12.0719 62.3782 12.9253 63.8121 12.9253C64.5487 12.9253 65.1407 12.6908 65.588 12.2217C66.0352 11.7397 66.2589 11.0296 66.2589 10.0916V5.53809H69.3371Z" fill="white"/>
<path d="M50.3667 11.9295L48.8868 13.3757V16.0531H45.8086V1.55225H48.8868V9.76025L53.3858 5.53899H57.056L52.6359 9.99476L57.4506 16.0531H53.7212L50.3667 11.9295Z" fill="white"/>
<path fill-rule="evenodd" clip-rule="evenodd" d="M41.7269 16.0534C40.6089 16.0534 39.6167 15.8289 38.7503 15.3799C37.8839 14.9173 37.1991 14.2983 36.696 13.5228C36.1929 12.7336 35.9414 11.8357 35.9414 10.8289C35.9414 9.82208 36.1929 8.93092 36.696 8.15541C37.1991 7.3663 37.8839 6.74045 38.7503 6.27786C39.6167 5.81528 40.6089 5.58398 41.7269 5.58398H41.9295H43.341H44.044V8.25791H41.9295V8.25745H41.8527C41.3077 8.25745 40.8395 8.3731 40.4482 8.60439C40.0569 8.82208 39.7495 9.1282 39.5259 9.52276C39.3163 9.90371 39.2115 10.3391 39.2115 10.8289C39.2115 11.3187 39.3163 11.7609 39.5259 12.1554C39.7495 12.5364 40.0569 12.8425 40.4482 13.0738C40.8395 13.2915 41.3077 13.4003 41.8527 13.4003H43.341V13.4019H44.044V16.0535H41.9295V16.0534H41.7269Z" fill="white"/>
<path fill-rule="evenodd" clip-rule="evenodd" d="M102.465 5.58398H104.579V8.25791H102.465V8.25768H102.388C101.843 8.25768 101.375 8.37332 100.983 8.60462C100.592 8.8223 100.285 9.12842 100.061 9.52298C99.8514 9.90393 99.7466 10.3393 99.7466 10.8291C99.7466 11.3189 99.8514 11.7611 100.061 12.1556C100.285 12.5366 100.592 12.8427 100.983 13.074C101.375 13.2917 101.843 13.4005 102.388 13.4005H103.876V13.4019H104.579V16.0535H103.876V16.0536H102.262C101.144 16.0536 100.152 15.8291 99.2855 15.3801C98.419 14.9175 97.7343 14.2985 97.2312 13.523C96.7281 12.7339 96.4766 11.8359 96.4766 10.8291C96.4766 9.8223 96.7281 8.93115 97.2312 8.15564C97.7343 7.36652 98.419 6.74067 99.2855 6.27808C100.152 5.8155 101.144 5.58421 102.262 5.58421H102.465V5.58398Z" fill="white"/>
</svg>
