<svg width="17" height="18" viewBox="0 0 17 18" fill="none" xmlns="http://www.w3.org/2000/svg">
<g clip-path="url(#clip0_6_10247)">
<path d="M8.18182 12.0703C7.65352 12.0703 7.12521 11.897 6.67457 11.5458L0 6.35578V13.6044C0 14.4513 0.686825 15.1385 1.53409 15.1385H14.8295C15.6768 15.1385 16.3636 14.4516 16.3636 13.6044V6.35578L9.69034 11.5493C9.2397 11.8977 8.70916 12.0703 8.18182 12.0703ZM0.520632 5.46409L7.30259 10.7407C7.82003 11.1434 8.54489 11.1434 9.06232 10.7407L15.8443 5.46409C16.1431 5.20841 16.3636 4.8153 16.3636 4.39981C16.3636 3.55255 15.6765 2.86572 14.8295 2.86572H1.53409C0.686825 2.86572 0 3.55255 0 4.39981C0 4.8153 0.192081 5.20841 0.520632 5.46409Z" fill="white"/>
</g>
<defs>
<clipPath id="clip0_6_10247">
<rect width="16.3636" height="16.3636" fill="white" transform="translate(0 0.820312)"/>
</clipPath>
</defs>
</svg>
