<svg width="61" height="60" viewBox="0 0 61 60" fill="none" xmlns="http://www.w3.org/2000/svg">
<g id="mark_email_read_FILL0_wght300_GRAD0_opsz24 1">
<path id="Vector" d="M10.8846 14.9999L30.4999 27.4999L50.1153 14.9999H10.8846ZM11.2719 48.7499C10.0284 48.7499 8.96385 48.3074 8.07831 47.4223C7.19277 46.5373 6.75 45.4734 6.75 44.2306V15.7693C6.75 14.5265 7.19252 13.4626 8.07756 12.5776C8.96256 11.6925 10.0265 11.25 11.2693 11.25H49.7306C50.9734 11.25 52.0373 11.6925 52.9223 12.5776C53.8074 13.4626 54.2499 14.5265 54.2499 15.7693V27.3654L52.3749 29.2404L50.4999 31.1153V18.6056L31.7163 30.6297C31.5753 30.729 31.1698 30.846 30.4999 30.9806C30.2916 30.9806 30.0849 30.9534 29.8798 30.8989C29.6746 30.8444 29.4759 30.7547 29.2836 30.6297L10.4999 18.6056V44.2306C10.4999 44.455 10.5721 44.6393 10.7163 44.7836C10.8606 44.9278 11.0449 44.9999 11.2693 44.9999H23.6874L27.4374 48.7499H11.2719ZM39.798 48.8173L52.6538 35.9615C52.9999 35.6154 53.435 35.4383 53.9591 35.4303C54.4831 35.4223 54.9262 35.5993 55.2883 35.9615C55.6505 36.3237 55.8316 36.7628 55.8316 37.2788C55.8316 37.7948 55.6505 38.2339 55.2883 38.5961L41.3797 52.5047C40.9278 52.9566 40.4005 53.1826 39.798 53.1826C39.1954 53.1826 38.6682 52.9566 38.2163 52.5047L31.3557 45.6441C31.0096 45.298 30.8325 44.8629 30.8244 44.3389C30.8164 43.8148 30.9935 43.3717 31.3557 43.0096C31.7179 42.6474 32.157 42.4663 32.673 42.4663C33.189 42.4663 33.6281 42.6474 33.9903 43.0096L39.798 48.8173Z" fill="#E0E0E0"/>
</g>
</svg>
