<svg width="60" height="60" viewBox="0 0 60 60" fill="none" xmlns="http://www.w3.org/2000/svg">
<g id="devices_FILL0_wght300_GRAD0_opsz24 1">
<path id="Vector" d="M9.06244 48.7499C8.28123 48.7499 7.61719 48.476 7.07031 47.9283C6.52344 47.3806 6.25 46.7156 6.25 45.9332C6.25 45.1508 6.52344 44.4871 7.07031 43.9423C7.61719 43.3974 8.28123 43.125 9.06244 43.125H11.25V15.7693C11.25 14.5265 11.6925 13.4626 12.5776 12.5776C13.4626 11.6925 14.5265 11.25 15.7693 11.25H49.3749C49.9061 11.25 50.3514 11.4298 50.7108 11.7893C51.0702 12.1489 51.2499 12.5944 51.2499 13.1258C51.2499 13.6573 51.0702 14.1025 50.7108 14.4615C50.3514 14.8205 49.9061 14.9999 49.3749 14.9999H15.7693C15.5449 14.9999 15.3606 15.0721 15.2163 15.2163C15.0721 15.3606 14.9999 15.5449 14.9999 15.7693V43.125H26.5384C27.3196 43.125 27.9837 43.3988 28.5306 43.9465C29.0774 44.4942 29.3509 45.1593 29.3509 45.9417C29.3509 46.7241 29.0774 47.3877 28.5306 47.9326C27.9837 48.4774 27.3196 48.7499 26.5384 48.7499H9.06244ZM37.5721 48.7499C36.9319 48.7499 36.3952 48.5333 35.9621 48.1002C35.529 47.6671 35.3124 47.1305 35.3124 46.4902V22.7403C35.3124 22.1001 35.529 21.5635 35.9621 21.1304C36.3952 20.6973 36.9319 20.4808 37.5721 20.4808H51.5143C52.1545 20.4808 52.6912 20.6973 53.1243 21.1304C53.5573 21.5635 53.7739 22.1001 53.7739 22.7403V46.4902C53.7739 47.1305 53.5573 47.6671 53.1243 48.1002C52.6912 48.5333 52.1545 48.7499 51.5143 48.7499H37.5721ZM39.0624 43.125H50.024V24.2306H39.0624V43.125Z" fill="#E0E0E0"/>
</g>
</svg>
