<svg width="19" height="18" viewBox="0 0 19 18" fill="none" xmlns="http://www.w3.org/2000/svg">
<path d="M13.0215 17.25H5.52148C4.32801 17.25 3.18342 16.7759 2.3395 15.932C1.49559 15.0881 1.02148 13.9435 1.02148 12.75V5.25C1.02148 4.05653 1.49559 2.91193 2.3395 2.06802C3.18342 1.22411 4.32801 0.75 5.52148 0.75H13.0215C14.215 0.75 15.3596 1.22411 16.2035 2.06802C17.0474 2.91193 17.5215 4.05653 17.5215 5.25V12.75C17.5215 13.9435 17.0474 15.0881 16.2035 15.932C15.3596 16.7759 14.215 17.25 13.0215 17.25ZM5.52148 2.25C4.72583 2.25 3.96277 2.56607 3.40016 3.12868C2.83755 3.69129 2.52148 4.45435 2.52148 5.25V12.75C2.52148 13.5456 2.83755 14.3087 3.40016 14.8713C3.96277 15.4339 4.72583 15.75 5.52148 15.75H13.0215C13.8171 15.75 14.5802 15.4339 15.1428 14.8713C15.7054 14.3087 16.0215 13.5456 16.0215 12.75V5.25C16.0215 4.45435 15.7054 3.69129 15.1428 3.12868C14.5802 2.56607 13.8171 2.25 13.0215 2.25H5.52148Z" fill="white"/>
<path d="M9.27149 13.5C8.38147 13.5 7.51144 13.2361 6.77142 12.7416C6.0314 12.2471 5.45462 11.5443 5.11403 10.7221C4.77343 9.89981 4.68432 8.99501 4.85795 8.1221C5.03159 7.24918 5.46017 6.44736 6.08951 5.81802C6.71884 5.18869 7.52067 4.7601 8.39358 4.58647C9.26649 4.41283 10.1713 4.50195 10.9936 4.84254C11.8158 5.18314 12.5186 5.75991 13.0131 6.49994C13.5076 7.23996 13.7715 8.10999 13.7715 9C13.7715 10.1935 13.2974 11.3381 12.4535 12.182C11.6096 13.0259 10.465 13.5 9.27149 13.5ZM9.27149 6C8.67814 6 8.09812 6.17595 7.60478 6.50559C7.11143 6.83524 6.72691 7.30377 6.49985 7.85195C6.27278 8.40013 6.21337 9.00333 6.32913 9.58527C6.44489 10.1672 6.73061 10.7018 7.15017 11.1213C7.56972 11.5409 8.10427 11.8266 8.68622 11.9424C9.26816 12.0581 9.87136 11.9987 10.4195 11.7716C10.9677 11.5446 11.4363 11.1601 11.7659 10.6667C12.0955 10.1734 12.2715 9.59335 12.2715 9C12.2715 8.20435 11.9554 7.44129 11.3928 6.87868C10.8302 6.31607 10.0671 6 9.27149 6Z" fill="white"/>
<path d="M13.7715 4.5C14.1857 4.5 14.5215 4.16421 14.5215 3.75C14.5215 3.33579 14.1857 3 13.7715 3C13.3573 3 13.0215 3.33579 13.0215 3.75C13.0215 4.16421 13.3573 4.5 13.7715 4.5Z" fill="white"/>
</svg>
