<svg width="61" height="60" viewBox="0 0 61 60" fill="none" xmlns="http://www.w3.org/2000/svg">
<g id="nights_stay_FILL0_wght300_GRAD0_opsz24 1">
<path id="Vector" d="M33.2499 56.2495H26.7499L27.6402 55.6648C28.2338 55.2751 28.8793 54.8386 29.5767 54.3553C30.2742 53.872 30.9197 53.4355 31.5132 53.0458L32.4036 52.4611H34.1345C37.6217 52.3073 40.8445 51.3265 43.8028 49.5188C46.7611 47.7111 49.0977 45.2672 50.8124 42.1871C47.2291 41.8528 43.8333 40.9441 40.6249 39.4608C37.4166 37.9776 34.5416 35.9617 31.9999 33.413C29.4743 30.8714 27.4575 27.9964 25.9494 24.788C24.4414 21.5797 23.5416 18.1919 23.2499 14.6246C20.0416 16.4162 17.5312 18.885 15.7187 22.0308C13.9062 25.1767 12.9999 28.5829 12.9999 32.2496C12.9999 32.5412 13.012 32.8706 13.036 33.2376C13.06 33.6046 13.0961 33.9259 13.1442 34.2016L12.5865 34.4371C12.2147 34.5942 11.7989 34.7616 11.3389 34.9395C10.879 35.1174 10.4632 35.2889 10.0914 35.454L9.53369 35.7015C9.43431 35.1471 9.36219 34.5757 9.31731 33.9876C9.27244 33.3995 9.25 32.8201 9.25 32.2496C9.25 27.5445 10.609 23.1094 13.3269 18.9444C16.0448 14.7794 19.6537 11.8987 24.1537 10.3026C24.5639 10.1616 24.9405 10.1167 25.2835 10.168C25.6265 10.2192 25.9486 10.3539 26.2499 10.5718C26.5511 10.7897 26.7787 11.0558 26.9326 11.3699C27.0864 11.684 27.1585 12.0461 27.1489 12.4564C27.1232 15.934 27.7539 19.2481 29.0407 22.3987C30.3276 25.5493 32.2051 28.3587 34.6734 30.827C37.1827 33.3363 39.979 35.2072 43.0624 36.4395C46.1457 37.6719 49.4261 38.2881 52.9037 38.2881C53.3139 38.2785 53.6929 38.3675 54.0407 38.555C54.3884 38.7425 54.6505 38.9869 54.8267 39.2881C55.003 39.5894 55.1208 39.9156 55.1801 40.2665C55.2394 40.6175 55.1777 40.9981 54.995 41.4083C53.1232 45.9756 50.2891 49.5909 46.4926 52.2543C42.6962 54.9178 38.2819 56.2495 33.2499 56.2495V56.2495ZM15.4999 52.4996H26.7499C27.7916 52.4996 28.677 52.135 29.4062 51.4058C30.1354 50.6767 30.4999 49.7912 30.4999 48.7496C30.4999 47.7079 30.1458 46.8225 29.4374 46.0933C28.7291 45.3642 27.8749 44.9996 26.8749 44.9996H23.6249L22.3749 41.9996C21.7916 40.6246 20.8749 39.5308 19.6249 38.7183C18.3749 37.9058 16.9999 37.4996 15.4999 37.4996C13.4166 37.4996 11.6458 38.2183 10.1874 39.6558C8.7291 41.0933 7.99994 42.8746 7.99994 44.9996C7.99994 47.0829 8.7291 48.8537 10.1874 50.3121C11.6458 51.7704 13.4166 52.4996 15.4999 52.4996ZM15.4999 56.2495C12.3782 56.2174 9.72275 55.1109 7.53362 52.9298C5.34454 50.7487 4.25 48.103 4.25 44.9925C4.25 41.882 5.34454 39.2305 7.53362 37.0382C9.72275 34.8458 12.379 33.7496 15.5024 33.7496C17.7604 33.7496 19.8174 34.3616 21.6735 35.5856C23.5296 36.8095 24.9076 38.4572 25.8076 40.5285L26.1201 41.2496H26.8894C28.9278 41.3009 30.6641 42.0528 32.0984 43.5051C33.5327 44.9575 34.2499 46.7057 34.2499 48.7498C34.2499 50.8298 33.5199 52.5997 32.06 54.0596C30.6 55.5195 28.83 56.2495 26.7499 56.2495H15.4999Z" fill="#E0E0E0"/>
</g>
</svg>
