<svg width="60" height="60" viewBox="0 0 60 60" fill="none" xmlns="http://www.w3.org/2000/svg">
<g id="gallery_thumbnail_FILL0_wght300_GRAD0_opsz24 1">
<path id="Vector" d="M8.89419 46.2499C7.65144 46.2499 6.58754 45.8074 5.7025 44.9223C4.8175 44.0373 4.375 42.9734 4.375 41.7306V18.2693C4.375 17.0265 4.8175 15.9626 5.7025 15.0776C6.58754 14.1925 7.65144 13.75 8.89419 13.75H32.3556C33.5984 13.75 34.6623 14.1925 35.5473 15.0776C36.4323 15.9626 36.8748 17.0265 36.8748 18.2693V41.7306C36.8748 42.9734 36.4323 44.0373 35.5473 44.9223C34.6623 45.8074 33.5984 46.2499 32.3556 46.2499H8.89419ZM44.1463 27.4999C43.4941 27.4999 42.9525 27.2844 42.5214 26.8533C42.0904 26.4222 41.8748 25.8806 41.8748 25.2284V16.0215C41.8748 15.3694 42.0904 14.8278 42.5214 14.3967C42.9525 13.9656 43.4941 13.75 44.1463 13.75H53.3532C54.0054 13.75 54.547 13.9656 54.9781 14.3967C55.4092 14.8278 55.6247 15.3694 55.6247 16.0215V25.2284C55.6247 25.8806 55.4092 26.4222 54.9781 26.8533C54.547 27.2844 54.0054 27.4999 53.3532 27.4999H44.1463ZM45.6247 23.75H51.8748V17.4999H45.6247V23.75ZM8.89419 42.4999H32.3556C32.58 42.4999 32.7643 42.4278 32.9086 42.2836C33.0528 42.1393 33.1249 41.955 33.1249 41.7306V18.2693C33.1249 18.0449 33.0528 17.8606 32.9086 17.7163C32.7643 17.5721 32.58 17.4999 32.3556 17.4999H8.89419C8.66981 17.4999 8.48552 17.5721 8.34131 17.7163C8.19706 17.8606 8.12494 18.0449 8.12494 18.2693V41.7306C8.12494 41.955 8.19706 42.1393 8.34131 42.2836C8.48552 42.4278 8.66981 42.4999 8.89419 42.4999ZM13.1249 37.3798H28.1249C28.5688 37.3798 28.9017 37.1746 29.1237 36.7644C29.3456 36.3541 29.314 35.9567 29.0288 35.5721L24.9663 30.1346C24.7323 29.8333 24.431 29.6826 24.0624 29.6826C23.6939 29.6826 23.3926 29.8333 23.1586 30.1346L19.3749 35.1923L16.8413 31.8221C16.6073 31.5208 16.306 31.3701 15.9374 31.3701C15.5689 31.3701 15.2676 31.5208 15.0336 31.8221L12.2211 35.5721C11.9358 35.9567 11.9042 36.3541 12.1261 36.7644C12.3481 37.1746 12.681 37.3798 13.1249 37.3798ZM44.1463 46.2499C43.4941 46.2499 42.9525 46.0343 42.5214 45.6032C42.0904 45.1721 41.8748 44.6305 41.8748 43.9784V34.7714C41.8748 34.1193 42.0904 33.5776 42.5214 33.1466C42.9525 32.7155 43.4941 32.4999 44.1463 32.4999H53.3532C54.0054 32.4999 54.547 32.7155 54.9781 33.1466C55.4092 33.5776 55.6247 34.1193 55.6247 34.7714V43.9784C55.6247 44.6305 55.4092 45.1721 54.9781 45.6032C54.547 46.0343 54.0054 46.2499 53.3532 46.2499H44.1463ZM45.6247 42.4999H51.8748V36.2499H45.6247V42.4999Z" fill="#E0E0E0"/>
</g>
</svg>
