<svg width="60" height="60" viewBox="0 0 60 60" fill="none" xmlns="http://www.w3.org/2000/svg">
<g id="dashboard_FILL0_wght300_GRAD0_opsz24 1">
<path id="Vector" d="M33.125 20.2284V11.0215C33.125 10.3694 33.3422 9.82777 33.7767 9.39669C34.2112 8.96557 34.7496 8.75 35.3919 8.75H48.9932C49.6354 8.75 50.1721 8.96557 50.6032 9.39669C51.0343 9.82777 51.2499 10.3694 51.2499 11.0215V20.2284C51.2499 20.8806 51.0326 21.4222 50.5981 21.8533C50.1636 22.2844 49.6252 22.4999 48.9829 22.4999H35.3817C34.7394 22.4999 34.2027 22.2844 33.7716 21.8533C33.3405 21.4222 33.125 20.8806 33.125 20.2284ZM8.75 28.9998V10.9996C8.75 10.3621 8.96725 9.82777 9.40175 9.39669C9.83625 8.96557 10.3746 8.75 11.0169 8.75H24.6182C25.2605 8.75 25.7972 8.96565 26.2283 9.39694C26.6593 9.82819 26.8749 10.3626 26.8749 11.0001V29.0003C26.8749 29.6378 26.6576 30.1721 26.2232 30.6032C25.7887 31.0343 25.2503 31.2499 24.608 31.2499H11.0067C10.3644 31.2499 9.82777 31.0342 9.39669 30.6029C8.96556 30.1717 8.75 29.6373 8.75 28.9998ZM33.125 48.9998V30.9996C33.125 30.3621 33.3422 29.8278 33.7767 29.3967C34.2112 28.9656 34.7496 28.75 35.3919 28.75H48.9932C49.6354 28.75 50.1721 28.9656 50.6032 29.3969C51.0343 29.8282 51.2499 30.3626 51.2499 31.0001V49.0003C51.2499 49.6378 51.0326 50.1721 50.5981 50.6032C50.1636 51.0343 49.6252 51.2499 48.9829 51.2499H35.3817C34.7394 51.2499 34.2027 51.0342 33.7716 50.6029C33.3405 50.1717 33.125 49.6373 33.125 48.9998ZM8.75 48.9784V39.7714C8.75 39.1193 8.96725 38.5777 9.40175 38.1466C9.83625 37.7155 10.3746 37.4999 11.0169 37.4999H24.6182C25.2605 37.4999 25.7972 37.7155 26.2283 38.1466C26.6593 38.5777 26.8749 39.1193 26.8749 39.7714V48.9784C26.8749 49.6305 26.6576 50.1721 26.2232 50.6032C25.7887 51.0343 25.2503 51.2499 24.608 51.2499H11.0067C10.3644 51.2499 9.82777 51.0343 9.39669 50.6032C8.96556 50.1721 8.75 49.6305 8.75 48.9784ZM12.4999 27.4999H23.125V12.4999H12.4999V27.4999ZM36.8749 47.4999H47.4999V32.4999H36.8749V47.4999ZM36.8749 18.75H47.4999V12.4999H36.8749V18.75ZM12.4999 47.4999H23.125V41.2499H12.4999V47.4999Z" fill="#E0E0E0"/>
</g>
</svg>
