<svg width="258" height="40" viewBox="0 0 258 40" fill="none" xmlns="http://www.w3.org/2000/svg">
<path fill-rule="evenodd" clip-rule="evenodd" d="M22.7922 2.28419C22.7922 1.02267 21.7808 0 20.5332 0C19.2856 0 18.2742 1.02267 18.2742 2.28419V15.1978L9.44736 6.6279C8.54743 5.75417 7.1174 5.78354 6.2533 6.6935C5.38921 7.60346 5.41825 9.04943 6.31818 9.92316L14.1603 17.537H2.759C1.51139 17.537 0.5 18.5597 0.5 19.8212C0.5 21.0827 1.51139 22.1054 2.759 22.1054H15.5302L7.05482 31.0306C6.19072 31.9406 6.21977 33.3866 7.1197 34.2603C8.01963 35.134 9.44965 35.1047 10.3138 34.1947L22.0934 21.7899C22.5568 21.3018 22.7741 20.7149 22.7899 20.1351C22.7914 20.0977 22.7922 20.0598 22.7922 20.0217V2.28419Z" fill="#37E8B4"/>
<path d="M57.3051 3.48987V9.14269H47.6876V32.1051H41.0823V9.14269H31.4648V3.48987H57.3051Z" fill="white"/>
<path d="M169.774 2.79236V8.58306H159.922V32.1055H153.156V8.58306H143.304V2.79236H169.774Z" fill="white"/>
<path d="M257.5 11.0785V28.5882C257.5 32.4445 256.525 35.3107 254.574 37.1868C252.624 39.0628 249.789 40.0008 246.07 40.0008C244.094 40.0008 242.221 39.7533 240.453 39.2582C238.711 38.7632 237.241 38.0466 236.045 37.1086L238.463 32.7312C239.348 33.4607 240.427 34.034 241.701 34.4509C242.976 34.8678 244.263 35.0762 245.563 35.0762C247.592 35.0762 249.074 34.6072 250.01 33.6692C250.946 32.7312 251.415 31.2981 251.415 29.3699V28.6664C250.634 29.4481 249.711 30.0474 248.645 30.4643C247.579 30.8812 246.434 31.0896 245.212 31.0896C242.455 31.0896 240.271 30.3079 238.659 28.7446C237.046 27.1551 236.24 24.784 236.24 21.6312V11.0785H242.325V20.7323C242.325 24.1456 243.743 25.8523 246.577 25.8523C248.034 25.8523 249.204 25.3833 250.088 24.4453C250.972 23.4812 251.415 22.0612 251.415 20.1851V11.0785H257.5Z" fill="white"/>
<path d="M220 23.8586L217.075 26.7508V32.1054H210.989V3.10486H217.075V19.5202L225.969 11.078H233.224L224.486 19.9892L234.005 32.1054H226.632L220 23.8586Z" fill="white"/>
<path fill-rule="evenodd" clip-rule="evenodd" d="M187.474 20.646C187.498 20.9559 187.509 21.2711 187.509 21.5916C187.509 23.6761 187.015 25.5391 186.027 27.1806C185.039 28.8222 183.674 30.1119 181.931 31.05C180.189 31.9619 178.212 32.4179 176.002 32.4179C173.791 32.4179 171.802 31.9619 170.033 31.05C168.291 30.1119 166.926 28.8222 165.937 27.1806C164.949 25.5391 164.455 23.6761 164.455 21.5916C164.455 19.5071 164.949 17.6441 165.937 16.0025C166.926 14.361 168.291 13.0843 170.033 12.1723C171.802 11.2343 173.791 10.7653 176.002 10.7653C176.247 10.7653 176.489 10.771 176.729 10.7826C176.289 11.7507 176.044 12.8264 176.044 13.9595C176.044 14.5842 176.118 15.1915 176.259 15.773C176.174 15.7697 176.088 15.768 176.002 15.768C174.441 15.768 173.154 16.3022 172.14 17.3705C171.126 18.4127 170.619 19.8198 170.619 21.5916C170.619 23.3634 171.126 24.7835 172.14 25.8518C173.154 26.894 174.441 27.4151 176.002 27.4151C177.562 27.4151 178.836 26.894 179.825 25.8518C180.839 24.7835 181.346 23.3634 181.346 21.5916C181.346 21.4808 181.344 21.3715 181.34 21.2636C182.085 21.5058 182.881 21.6367 183.706 21.6367C185.076 21.6367 186.362 21.2767 187.474 20.646Z" fill="white"/>
<ellipse cx="183.707" cy="13.9591" rx="3.48296" ry="3.48966" fill="#37E8B4"/>
<path fill-rule="evenodd" clip-rule="evenodd" d="M67.4507 14.7601C66.5174 15.1654 65.4879 15.3901 64.406 15.3901C63.3256 15.3901 62.2974 15.1661 61.3652 14.7619V32.1054H67.4507V14.7601Z" fill="white"/>
<ellipse cx="64.4068" cy="7.71256" rx="3.48296" ry="3.48966" fill="#37E8B4"/>
<path d="M137.575 11.0785V28.5882C137.575 32.4445 136.6 35.3107 134.649 37.1868C132.699 39.0628 129.864 40.0008 126.145 40.0008C124.169 40.0008 122.297 39.7533 120.528 39.2582C118.786 38.7632 117.316 38.0466 116.12 37.1086L118.539 32.7312C119.423 33.4607 120.502 34.034 121.776 34.4509C123.051 34.8678 124.338 35.0762 125.638 35.0762C127.667 35.0762 129.149 34.6072 130.085 33.6692C131.022 32.7312 131.49 31.2981 131.49 29.3699V28.6664C130.71 29.4481 129.786 30.0474 128.72 30.4643C127.654 30.8812 126.51 31.0896 125.287 31.0896C122.531 31.0896 120.346 30.3079 118.734 28.7446C117.121 27.1551 116.315 24.784 116.315 21.6312V11.0785H122.401V20.7323C122.401 24.1456 123.818 25.8523 126.653 25.8523C128.109 25.8523 129.279 25.3833 130.163 24.4453C131.048 23.4812 131.49 22.0612 131.49 20.1851V11.0785H137.575Z" fill="white"/>
<path d="M100.072 23.8586L97.146 26.7508V32.1054H91.0605V3.10486H97.146V19.5202L106.04 11.078H113.296L104.558 19.9892L114.076 32.1054H106.703L100.072 23.8586Z" fill="white"/>
<path fill-rule="evenodd" clip-rule="evenodd" d="M82.9922 32.105C80.7821 32.105 78.8206 31.656 77.1077 30.7581C75.3948 29.8329 74.0411 28.5949 73.0465 27.0439C72.052 25.4658 71.5547 23.6699 71.5547 21.6564C71.5547 19.6429 72.052 17.8606 73.0465 16.3097C74.0411 14.7315 75.3948 13.4798 77.1077 12.5547C78.8206 11.6296 80.7821 11.167 82.9922 11.167H83.3951H86.1831H87.5753V16.5146H83.3951V16.5137H83.2408C82.1634 16.5137 81.2379 16.745 80.4643 17.2076C79.6908 17.6429 79.083 18.2552 78.641 19.0442C78.2266 19.8061 78.0194 20.6768 78.0194 21.6564C78.0194 22.6359 78.2266 23.5203 78.641 24.3093C79.083 25.0712 79.6908 25.6834 80.4643 26.146C81.2379 26.5814 82.1634 26.799 83.2408 26.799H86.1831V26.8018H87.5753V32.1047H86.1831V32.105H82.9922Z" fill="white"/>
<path fill-rule="evenodd" clip-rule="evenodd" d="M202.673 32.105C200.463 32.105 198.501 31.656 196.788 30.7581C195.075 29.8329 193.722 28.5949 192.727 27.0439C191.733 25.4658 191.235 23.6699 191.235 21.6564C191.235 19.6429 191.733 17.8606 192.727 16.3097C193.722 14.7315 195.075 13.4798 196.788 12.5547C198.501 11.6296 200.463 11.167 202.673 11.167H203.076H205.864H207.256V16.5146H203.076V16.5137H202.922C201.844 16.5137 200.919 16.745 200.145 17.2076C199.371 17.6429 198.764 18.2552 198.322 19.0442C197.907 19.8061 197.7 20.6768 197.7 21.6564C197.7 22.6359 197.907 23.5203 198.322 24.3093C198.764 25.0712 199.371 25.6834 200.145 26.146C200.919 26.5814 201.844 26.799 202.922 26.799H205.864V26.8018H207.256V32.1047H205.864V32.105H202.673Z" fill="white"/>
</svg>
