<svg width="24" height="24" viewBox="0 0 24 24" fill="none" xmlns="http://www.w3.org/2000/svg">
<g id="Icon/Logout/Default">
<path id="Vector" d="M5.3077 20.5C4.80257 20.5 4.375 20.325 4.025 19.975C3.675 19.625 3.5 19.1974 3.5 18.6923V5.3077C3.5 4.80257 3.675 4.375 4.025 4.025C4.375 3.675 4.80257 3.5 5.3077 3.5H11.2596C11.4724 3.5 11.6506 3.5718 11.7942 3.7154C11.9378 3.85898 12.0096 4.03718 12.0096 4.25C12.0096 4.46282 11.9378 4.64102 11.7942 4.7846C11.6506 4.92818 11.4724 4.99998 11.2596 4.99998H5.3077C5.23077 4.99998 5.16024 5.03203 5.09612 5.09613C5.03202 5.16024 4.99997 5.23077 4.99997 5.3077V18.6923C4.99997 18.7692 5.03202 18.8397 5.09612 18.9038C5.16024 18.9679 5.23077 19 5.3077 19H11.2596C11.4724 19 11.6506 19.0718 11.7942 19.2154C11.9378 19.3589 12.0096 19.5371 12.0096 19.75C12.0096 19.9628 11.9378 20.141 11.7942 20.2846C11.6506 20.4282 11.4724 20.5 11.2596 20.5H5.3077ZM17.6173 12.75H9.84612C9.63331 12.75 9.45511 12.6782 9.31152 12.5346C9.16792 12.391 9.09612 12.2128 9.09612 12C9.09612 11.7872 9.16792 11.609 9.31152 11.4654C9.45511 11.3218 9.63331 11.25 9.84612 11.25H17.6173L15.6942 9.32693C15.5558 9.18846 15.4849 9.01955 15.4817 8.8202C15.4785 8.62085 15.5494 8.44361 15.6942 8.28848C15.8391 8.13336 16.0147 8.05323 16.2211 8.0481C16.4275 8.04297 16.6083 8.11797 16.7634 8.2731L19.8576 11.3673C20.0384 11.5481 20.1288 11.759 20.1288 12C20.1288 12.241 20.0384 12.4519 19.8576 12.6327L16.7634 15.7269C16.6147 15.8756 16.4381 15.949 16.2336 15.9471C16.0292 15.9451 15.8494 15.8666 15.6942 15.7115C15.5494 15.5563 15.4795 15.3781 15.4846 15.1769C15.4898 14.9756 15.5648 14.8025 15.7096 14.6577L17.6173 12.75Z" fill="#474A5B"/>
</g>
</svg>
