<svg width="19" height="18" viewBox="0 0 19 18" fill="none" xmlns="http://www.w3.org/2000/svg">
<g clip-path="url(#clip0_6_10245)">
<path d="M15.8304 0.87207H3.65815C3.02576 0.87207 2.41925 1.12329 1.97208 1.57046C1.5249 2.01765 1.27368 2.62414 1.27368 3.25654V15.4288C1.27368 16.0612 1.5249 16.6677 1.97208 17.1148C2.41925 17.562 3.02576 17.8132 3.65815 17.8132H9.19791V11.6297H7.10356V9.21772H9.19791V7.44101C9.19791 6.43407 9.47638 5.6516 10.0333 5.09572C10.5903 4.53878 11.3452 4.25925 12.2992 4.25925C13.2542 4.25925 13.8726 4.29631 14.1553 4.36619V6.51348H12.8826C12.4231 6.51348 12.1097 6.6109 11.9413 6.80572C11.774 6.99948 11.6904 7.29172 11.6904 7.68031V9.21772H14.0759L13.7582 11.6297H11.6904V17.8132H15.8304C16.4628 17.8132 17.0693 17.562 17.5164 17.1148C17.9637 16.6677 18.2148 16.0612 18.2148 15.4288V3.25654C18.2148 2.62414 17.9637 2.01765 17.5164 1.57046C17.0693 1.12329 16.4628 0.87207 15.8304 0.87207Z" fill="white"/>
</g>
<defs>
<clipPath id="clip0_6_10245">
<rect width="18" height="18" fill="white" transform="translate(0.820312)"/>
</clipPath>
</defs>
</svg>
