<svg width="24" height="24" viewBox="0 0 24 24" fill="none" xmlns="http://www.w3.org/2000/svg">
<g id="space_dashboard_FILL0_wght200_GRAD0_opsz24 1">
<path id="Vector" d="M5.61538 20C5.15513 20 4.77083 19.8458 4.4625 19.5375C4.15417 19.2292 4 18.8449 4 18.3846V5.61537C4 5.15512 4.15417 4.77083 4.4625 4.4625C4.77083 4.15417 5.15513 4 5.61538 4H18.3846C18.8449 4 19.2292 4.15417 19.5375 4.4625C19.8458 4.77083 20 5.15512 20 5.61537V18.3846C20 18.8449 19.8458 19.2292 19.5375 19.5375C19.2292 19.8458 18.8449 20 18.3846 20H5.61538ZM5.61538 19H11.5V5H5.61538C5.46154 5 5.32052 5.0641 5.1923 5.1923C5.0641 5.32052 5 5.46154 5 5.61537V18.3846C5 18.5385 5.0641 18.6795 5.1923 18.8077C5.32052 18.9359 5.46154 19 5.61538 19ZM12.5 19H18.3846C18.5385 19 18.6795 18.9359 18.8077 18.8077C18.9359 18.6795 19 18.5385 19 18.3846V12H12.5V19ZM12.5 11H19V5.61537C19 5.46154 18.9359 5.32052 18.8077 5.1923C18.6795 5.0641 18.5385 5 18.3846 5H12.5V11Z" fill="#474A5B"/>
</g>
</svg>
