<svg width="16" height="16" viewBox="0 0 16 16" fill="none" xmlns="http://www.w3.org/2000/svg">
<path d="M6.1126 7.99985L11.1344 13.0217C11.2669 13.1541 11.3314 13.3118 11.328 13.4947C11.3246 13.6776 11.2566 13.8353 11.1241 13.9678C10.9917 14.1003 10.834 14.1665 10.6511 14.1665C10.4682 14.1665 10.3105 14.1003 10.178 13.9678L5.07416 8.85369C4.95365 8.73318 4.86434 8.59814 4.80621 8.44857C4.7481 8.29899 4.71905 8.14942 4.71905 7.99985C4.71905 7.85029 4.7481 7.70071 4.80621 7.55114C4.86434 7.40157 4.95365 7.26653 5.07416 7.14602L10.1883 2.03192C10.3207 1.89944 10.4767 1.83491 10.6562 1.83832C10.8357 1.84174 10.9917 1.90969 11.1241 2.04217C11.2566 2.17465 11.3229 2.33234 11.3229 2.51524C11.3229 2.69814 11.2566 2.85583 11.1241 2.9883L6.1126 7.99985Z" fill="#6A6D81"/>
</svg>
