<svg width="16" height="16" viewBox="0 0 16 16" fill="none" xmlns="http://www.w3.org/2000/svg">
<path d="M9.8874 8.00015L4.8656 2.97835C4.73313 2.84587 4.66859 2.68818 4.672 2.50528C4.67543 2.32237 4.74338 2.16468 4.87585 2.03221C5.00833 1.89974 5.16602 1.8335 5.34892 1.8335C5.53182 1.8335 5.68951 1.89974 5.82199 2.03221L10.9258 7.14631C11.0463 7.26682 11.1357 7.40186 11.1938 7.55143C11.2519 7.70101 11.281 7.85058 11.281 8.00015C11.281 8.14971 11.2519 8.29928 11.1938 8.44886C11.1357 8.59843 11.0463 8.73347 10.9258 8.85398L5.81174 13.9681C5.67926 14.1006 5.52328 14.1651 5.34379 14.1617C5.16431 14.1583 5.00833 14.0903 4.87585 13.9578C4.74338 13.8254 4.67714 13.6677 4.67714 13.4848C4.67714 13.3019 4.74338 13.1442 4.87585 13.0117L9.8874 8.00015Z" fill="#6A6D81"/>
</svg>
