<svg width="58" height="58" viewBox="0 0 58 58" fill="none" xmlns="http://www.w3.org/2000/svg">
<path d="M18.4025 48.3336C17.3212 48.3336 16.4003 47.9533 15.6396 47.1927C14.879 46.4321 14.4987 45.5111 14.4987 44.4298V14.5003H13.2904C12.9464 14.5003 12.6591 14.3849 12.4283 14.154C12.1974 13.9232 12.082 13.6359 12.082 13.292C12.082 12.948 12.1974 12.6607 12.4283 12.4299C12.6591 12.199 12.9464 12.0836 13.2904 12.0836H21.7487C21.7487 11.5848 21.9338 11.1503 22.304 10.78C22.6743 10.4097 23.1089 10.2246 23.6077 10.2246H34.3897C34.8885 10.2246 35.3231 10.4097 35.6933 10.78C36.0636 11.1503 36.2487 11.5848 36.2487 12.0836H44.707C45.051 12.0836 45.3383 12.199 45.5691 12.4299C45.7999 12.6607 45.9154 12.948 45.9154 13.292C45.9154 13.6359 45.7999 13.9232 45.5691 14.154C45.3383 14.3849 45.051 14.5003 44.707 14.5003H43.4987V44.4298C43.4987 45.5111 43.1184 46.4321 42.3578 47.1927C41.5971 47.9533 40.6762 48.3336 39.5949 48.3336H18.4025ZM41.082 14.5003H16.9154V44.4298C16.9154 44.8636 17.0548 45.2199 17.3336 45.4987C17.6125 45.7775 17.9688 45.917 18.4025 45.917H39.5949C40.0286 45.917 40.3849 45.7775 40.6638 45.4987C40.9426 45.2199 41.082 44.8636 41.082 44.4298V14.5003ZM28.9987 31.9189L34.4269 37.3471C34.6531 37.5733 34.9303 37.6941 35.2588 37.7096C35.5872 37.7251 35.88 37.6043 36.1372 37.3471C36.3943 37.0899 36.5229 36.8049 36.5229 36.492C36.5229 36.179 36.3943 35.894 36.1372 35.6368L30.709 30.2086L36.1372 24.7804C36.3633 24.5543 36.4842 24.277 36.4997 23.9486C36.5152 23.6201 36.3943 23.3273 36.1372 23.0702C35.88 22.813 35.5949 22.6844 35.282 22.6844C34.9691 22.6844 34.6841 22.813 34.4269 23.0702L28.9987 28.4984L23.5705 23.0702C23.3443 22.844 23.067 22.7232 22.7386 22.7077C22.4102 22.6922 22.1174 22.813 21.8602 23.0702C21.6031 23.3273 21.4745 23.6124 21.4745 23.9253C21.4745 24.2382 21.6031 24.5233 21.8602 24.7804L27.2884 30.2086L21.8602 35.6368C21.6341 35.863 21.5132 36.1403 21.4977 36.4687C21.4822 36.7971 21.6031 37.0899 21.8602 37.3471C22.1174 37.6043 22.4024 37.7329 22.7154 37.7329C23.0283 37.7329 23.3133 37.6043 23.5705 37.3471L28.9987 31.9189Z" fill="#F34642"/>
</svg>
