<svg width="7" height="7" viewBox="0 0 7 7" fill="none" xmlns="http://www.w3.org/2000/svg">
<path d="M3.17211 3.69902L0.635562 6.23556C0.566337 6.3048 0.479321 6.34021 0.374512 6.34181C0.269712 6.34342 0.181096 6.308 0.108662 6.23556C0.0362208 6.16313 0 6.07531 0 5.97211C0 5.86891 0.0362208 5.7811 0.108662 5.70866L2.6452 3.17211L0.108662 0.635562C0.0394291 0.566337 0.00401241 0.479321 0.00241241 0.374512C0.000804081 0.269713 0.0362208 0.181096 0.108662 0.108662C0.181096 0.0362208 0.268912 0 0.372112 0C0.475312 0 0.563129 0.0362208 0.635562 0.108662L3.17211 2.6452L5.70866 0.108662C5.77789 0.0394291 5.8649 0.00401241 5.96971 0.00241241C6.07451 0.000804081 6.16313 0.0362208 6.23556 0.108662C6.308 0.181096 6.34422 0.268912 6.34422 0.372112C6.34422 0.475312 6.308 0.563129 6.23556 0.635562L3.69902 3.17211L6.23556 5.70866C6.3048 5.77789 6.34021 5.8649 6.34181 5.96971C6.34342 6.07451 6.308 6.16313 6.23556 6.23556C6.16313 6.308 6.07531 6.34422 5.97211 6.34422C5.86891 6.34422 5.7811 6.308 5.70866 6.23556L3.17211 3.69902Z" fill="#6A6D81"/>
</svg>
