<svg width="24" height="24" viewBox="0 0 24 24" fill="none" xmlns="http://www.w3.org/2000/svg">
<g id="settings_FILL0_wght300_GRAD0_opsz24 1">
<path id="Vector" d="M10.4802 21.5C10.2558 21.5 10.0616 21.4246 9.89749 21.274C9.73339 21.1233 9.63467 20.9358 9.60134 20.7115L9.31096 18.4538C9.04301 18.3641 8.76833 18.2384 8.48691 18.0769C8.20549 17.9153 7.95389 17.7422 7.73209 17.5576L5.64364 18.4384C5.42954 18.532 5.21704 18.5429 5.00614 18.4711C4.79524 18.3993 4.62953 18.2647 4.50901 18.0673L3.00521 15.4481C2.89109 15.2506 2.85584 15.0397 2.89944 14.8154C2.94302 14.591 3.05519 14.4102 3.23596 14.2731L5.04366 12.9058C5.02058 12.757 5.00423 12.6077 4.99461 12.4577C4.98499 12.3077 4.98019 12.1583 4.98019 12.0096C4.98019 11.8673 4.98499 11.7227 4.99461 11.5759C5.00423 11.4291 5.02058 11.2686 5.04366 11.0942L3.23596 9.72688C3.05519 9.58971 2.94142 9.40894 2.89464 9.18458C2.84784 8.96023 2.88469 8.74934 3.00521 8.5519L4.50901 5.95195C4.62953 5.75452 4.79364 5.6199 5.00134 5.5481C5.20902 5.4763 5.41991 5.4872 5.63401 5.5808L7.72246 6.45195C7.96349 6.26092 8.22087 6.08623 8.49459 5.9279C8.76832 5.76955 9.03724 5.6423 9.30134 5.54615L9.60134 3.28848C9.63467 3.06411 9.73339 2.87661 9.89749 2.72598C10.0616 2.57533 10.2558 2.5 10.4802 2.5H13.509C13.7333 2.5 13.9292 2.57533 14.0965 2.72598C14.2638 2.87661 14.3641 3.06411 14.3974 3.28848L14.6878 5.55578C14.9878 5.66474 15.2593 5.79198 15.5023 5.9375C15.7452 6.08302 15.9904 6.2545 16.2378 6.45195L18.3648 5.5808C18.5789 5.4872 18.7898 5.4747 18.9974 5.5433C19.2051 5.61188 19.3692 5.74489 19.4898 5.94233L20.9936 8.5519C21.1141 8.74934 21.1509 8.96023 21.1041 9.18458C21.0574 9.40894 20.9436 9.58971 20.7628 9.72688L18.9167 11.123C18.9526 11.2846 18.9721 11.4355 18.9753 11.5759C18.9785 11.7163 18.9801 11.8577 18.9801 12C18.9801 12.1359 18.9769 12.274 18.9705 12.4144C18.9641 12.5548 18.941 12.7154 18.9013 12.8962L20.7282 14.2731C20.909 14.4102 21.0227 14.591 21.0695 14.8154C21.1163 15.0397 21.0795 15.2506 20.959 15.4481L19.4551 18.0519C19.3346 18.2493 19.1664 18.3849 18.9503 18.4586C18.7343 18.5323 18.5192 18.5224 18.3051 18.4288L16.2378 17.548C15.9904 17.7455 15.7378 17.9201 15.4801 18.0721C15.2224 18.224 14.9583 18.348 14.6878 18.4442L14.3974 20.7115C14.3641 20.9358 14.2638 21.1233 14.0965 21.274C13.9292 21.4246 13.7333 21.5 13.509 21.5H10.4802ZM10.9994 20H12.9648L13.3244 17.3211C13.8346 17.1878 14.301 16.9984 14.7234 16.7529C15.1458 16.5074 15.5532 16.1917 15.9455 15.8058L18.4302 16.85L19.4148 15.15L17.2455 13.5154C17.3289 13.2564 17.3856 13.0025 17.4157 12.7538C17.4459 12.5051 17.4609 12.2538 17.4609 12C17.4609 11.7397 17.4459 11.4884 17.4157 11.2461C17.3856 11.0038 17.3289 10.7564 17.2455 10.5038L19.434 8.84998L18.4494 7.14998L15.9359 8.2096C15.6013 7.8519 15.2004 7.53588 14.733 7.26153C14.2657 6.98716 13.793 6.79293 13.3148 6.67883L12.9994 3.99998H11.0148L10.684 6.6692C10.1737 6.78972 9.70259 6.97433 9.27054 7.22305C8.83849 7.47177 8.42631 7.79228 8.03401 8.1846L5.54939 7.14998L4.56476 8.84998L6.72439 10.4596C6.64105 10.6968 6.58272 10.9436 6.54939 11.2C6.51605 11.4564 6.49939 11.7263 6.49939 12.0096C6.49939 12.2699 6.51605 12.525 6.54939 12.775C6.58272 13.025 6.63784 13.2718 6.71476 13.5154L4.56476 15.15L5.54939 16.85L8.02439 15.8C8.40387 16.1897 8.80964 16.509 9.24169 16.7577C9.67374 17.0064 10.1513 17.1974 10.6744 17.3308L10.9994 20ZM12.0109 15C12.843 15 13.551 14.708 14.1349 14.124C14.7189 13.54 15.0109 12.832 15.0109 12C15.0109 11.1679 14.7189 10.4599 14.1349 9.87595C13.551 9.29198 12.843 9 12.0109 9C11.1686 9 10.4581 9.29198 9.87921 9.87595C9.30038 10.4599 9.01096 11.1679 9.01096 12C9.01096 12.832 9.30038 13.54 9.87921 14.124C10.4581 14.708 11.1686 15 12.0109 15Z" fill="#6A6D81"/>
</g>
</svg>
