<svg xmlns="http://www.w3.org/2000/svg" width="58" height="58" viewBox="0 0 58 58" fill="none">
  <path d="M25.5237 35.0231L19.4913 28.9907C19.2652 28.7645 18.9879 28.6437 18.6594 28.6282C18.331 28.6127 18.0382 28.7335 17.7811 28.9907C17.5239 29.2479 17.3953 29.5329 17.3953 29.8458C17.3953 30.1588 17.5239 30.4438 17.7811 30.701L24.1574 37.0772C24.5477 37.4676 25.0032 37.6628 25.5237 37.6628C26.0443 37.6628 26.4997 37.4676 26.8901 37.0772L40.126 23.8413C40.3521 23.6152 40.473 23.3379 40.4885 23.0094C40.504 22.681 40.3831 22.3882 40.126 22.1311C39.8688 21.8739 39.5838 21.7453 39.2708 21.7453C38.9579 21.7453 38.6729 21.8739 38.4157 22.1311L25.5237 35.0231ZM29.0081 50.75C26.0004 50.75 23.1727 50.1793 20.525 49.0379C17.8773 47.8964 15.5741 46.3473 13.6154 44.3905C11.6569 42.4337 10.1063 40.1327 8.96378 37.4875C7.82126 34.8422 7.25 32.0157 7.25 29.0081C7.25 26.0004 7.82072 23.1727 8.96215 20.525C10.1036 17.8773 11.6527 15.5741 13.6095 13.6154C15.5663 11.6569 17.8673 10.1063 20.5125 8.96378C23.1578 7.82126 25.9843 7.25 28.9919 7.25C31.9996 7.25 34.8273 7.82072 37.475 8.96215C40.1227 10.1036 42.4259 11.6527 44.3846 13.6095C46.3431 15.5663 47.8937 17.8673 49.0362 20.5125C50.1787 23.1578 50.75 25.9843 50.75 28.9919C50.75 31.9996 50.1793 34.8273 49.0379 37.475C47.8964 40.1227 46.3473 42.4259 44.3905 44.3846C42.4337 46.3431 40.1327 47.8937 37.4875 49.0362C34.8422 50.1787 32.0157 50.75 29.0081 50.75ZM29 48.3333C34.3972 48.3333 38.9687 46.4604 42.7146 42.7146C46.4604 38.9687 48.3333 34.3972 48.3333 29C48.3333 23.6028 46.4604 19.0312 42.7146 15.2854C38.9687 11.5396 34.3972 9.66667 29 9.66667C23.6028 9.66667 19.0312 11.5396 15.2854 15.2854C11.5396 19.0312 9.66667 23.6028 9.66667 29C9.66667 34.3972 11.5396 38.9687 15.2854 42.7146C19.0312 46.4604 23.6028 48.3333 29 48.3333Z" fill="#37E8B4"/>
</svg>