<svg width="20" height="20" viewBox="0 0 20 20" fill="none" xmlns="http://www.w3.org/2000/svg">
<g id="Icon/Search">
<path id="Subtract" fill-rule="evenodd" clip-rule="evenodd" d="M18.0374 18.6276L17.7428 18.333L13.8777 14.468L13.5865 14.7009C12.3746 15.6703 10.8382 16.2497 9.16536 16.2497C5.25335 16.2497 2.08203 13.0784 2.08203 9.16634C2.08203 5.25432 5.25335 2.08301 9.16536 2.08301C13.0774 2.08301 16.2487 5.25432 16.2487 9.16634C16.2487 10.8392 15.6693 12.3756 14.6999 13.5875L14.4669 13.8787L18.6219 18.0337L18.6243 18.036C18.7015 18.1121 18.7487 18.2166 18.7487 18.333C18.7487 18.5631 18.5621 18.7497 18.332 18.7497C18.2169 18.7497 18.1133 18.7035 18.0374 18.6276ZM9.16536 2.91634C5.71358 2.91634 2.91536 5.71456 2.91536 9.16634C2.91536 12.6181 5.71358 15.4163 9.16536 15.4163C12.6171 15.4163 15.4154 12.6181 15.4154 9.16634C15.4154 5.71456 12.6171 2.91634 9.16536 2.91634Z" fill="#474A5B"/>
</g>
</svg>
